<?xml version="1.0" encoding="UTF-8" standalone="no"?>
<svg
   version="1.1"
   viewBox="129.53 150.23 775.7 701.03"
   id="svg8"
   sodipodi:docname="image-080.svg"
   inkscape:version="1.1.2 (0a00cf5339, 2022-02-04)"
   xmlns:inkscape="http://www.inkscape.org/namespaces/inkscape"
   xmlns:sodipodi="http://sodipodi.sourceforge.net/DTD/sodipodi-0.dtd"
   xmlns="http://www.w3.org/2000/svg"
   xmlns:svg="http://www.w3.org/2000/svg">
  <defs
     id="defs12" />
  <sodipodi:namedview
     id="namedview10"
     pagecolor="#ffffff"
     bordercolor="#666666"
     borderopacity="1.0"
     inkscape:pageshadow="2"
     inkscape:pageopacity="0.0"
     inkscape:pagecheckerboard="0"
     showgrid="false"
     inkscape:zoom="1.1582956"
     inkscape:cx="387.63853"
     inkscape:cy="350.51501"
     inkscape:window-width="1920"
     inkscape:window-height="1003"
     inkscape:window-x="0"
     inkscape:window-y="0"
     inkscape:window-maximized="1"
     inkscape:current-layer="svg8" />
  <path
     d="M 324.360 241.449 C 309.727 244.161, 305.213 246.715, 309.096 250.083 C 311.148 251.863, 315.848 252.595, 331 253.492 C 335.125 253.736, 341.538 254.790, 345.250 255.834 C 348.962 256.877, 352.007 257.454, 352.015 257.116 C 352.024 256.777, 352.361 256.950, 352.765 257.500 C 353.169 258.050, 356.597 260.075, 360.382 262 C 368.976 266.371, 379.417 275.947, 383.975 283.637 C 385.886 286.862, 387.911 289.831, 388.475 290.235 C 389.039 290.639, 389.218 290.976, 388.874 290.985 C 388.530 290.993, 389.309 293.922, 390.605 297.493 C 391.901 301.064, 393.460 308.151, 394.068 313.243 C 394.677 318.334, 395.619 323.335, 396.161 324.355 C 396.848 325.645, 396.821 326.007, 396.074 325.546 C 394.685 324.687, 394.662 323.589, 396.991 369 C 398.963 407.455, 399.439 417.590, 400.464 443 C 400.764 450.425, 401.228 461.900, 401.496 468.500 C 401.764 475.100, 402.651 502.775, 403.467 530 C 404.282 557.225, 405.192 584.900, 405.488 591.500 C 405.785 598.100, 406.477 620.150, 407.026 640.500 C 408.648 700.613, 409.850 723.543, 411.904 733.550 C 417.757 762.063, 438.065 790.192, 463.500 805.016 C 469.302 808.397, 467.292 806.604, 459.214 801.193 C 445.687 792.130, 430.647 776.324, 425.406 765.662 L 423.852 762.500 426.652 766 C 463.430 811.969, 522.780 822.512, 574.424 792.249 C 596.296 779.432, 611.653 757.021, 619.133 727 C 621.781 716.371, 622.408 679.572, 620.708 634.493 C 619.546 603.694, 619.767 586.339, 621.393 580.500 C 624.819 568.199, 631.843 556.981, 641.429 548.500 C 650.034 540.888, 650.683 540.534, 653.609 541.868 C 654.924 542.467, 656 542.779, 656 542.561 C 656 542.343, 648.462 538.229, 639.250 533.420 C 630.038 528.611, 618.112 522.074, 612.750 518.893 C 607.388 515.713, 603 513.289, 603 513.507 C 603 513.726, 601.914 512.898, 600.586 511.667 C 599.258 510.437, 596.896 508.771, 595.336 507.967 C 593.776 507.162, 592.275 506.248, 592 505.936 C 590.695 504.454, 581.408 498.555, 580.722 498.772 C 580.294 498.908, 579.684 498.339, 579.365 497.509 C 579.047 496.679, 578.159 496, 577.393 496 C 576.627 496, 576 495.646, 576 495.213 C 576 494.223, 566.393 487, 565.076 487 C 564.539 487, 563.683 486.255, 563.173 485.346 C 562.652 484.415, 561.587 483.945, 560.736 484.271 C 558.861 484.991, 557.874 492.920, 559.407 494.942 C 560.223 496.019, 560.197 496.202, 559.304 495.666 C 558.133 494.964, 555.478 501.812, 556.518 502.852 C 556.774 503.107, 556.583 503.807, 556.094 504.408 C 552.864 508.375, 546.186 544.605, 546.056 558.862 C 546.014 563.461, 545.772 567.560, 545.517 567.972 C 543.869 570.639, 548.144 648.215, 549.973 648.824 C 550.727 649.076, 550.761 649.584, 550.077 650.407 C 549.393 651.232, 549.859 657.189, 551.536 669.050 C 556.545 704.479, 553.050 717.325, 536.741 723.426 C 533.751 724.544, 533.385 724.849, 535.500 724.459 C 537.150 724.155, 539.719 723.027, 541.210 721.953 C 545.432 718.909, 546.328 719.400, 545.759 724.446 C 545.002 731.160, 538.004 743, 534.793 743 C 534.335 743, 532.087 744.182, 529.798 745.627 C 511.243 757.341, 479.310 736.929, 475.201 710.728 L 474.303 705 479.401 704.985 C 482.206 704.976, 485.021 704.639, 485.658 704.235 C 486.294 703.831, 483.144 703.500, 478.658 703.500 C 469.623 703.500, 464.804 702.912, 463.910 701.700 C 463.586 701.260, 462.348 700.827, 461.160 700.737 C 459.972 700.648, 459 700.250, 459 699.855 C 459 699.459, 458.023 698.825, 456.830 698.446 C 454.242 697.625, 441.185 684.500, 442.956 684.500 C 443.156 684.500, 442.751 682.775, 442.055 680.667 C 434.448 657.616, 460.558 630.657, 482.435 638.975 C 486.351 640.464, 486.943 640.160, 483.627 638.364 C 478.966 635.839, 468.634 636.260, 461.158 639.280 L 454.830 641.836 453.315 638.168 C 452.482 636.151, 451.234 633.825, 450.541 633 C 449.293 631.513, 447.152 624.044, 446.456 618.750 C 446.140 616.342, 446.431 615.998, 448.798 615.985 C 450.855 615.973, 451.149 615.747, 450.029 615.039 C 449.220 614.527, 448.829 613.838, 449.160 613.507 C 449.491 613.176, 450.382 613.525, 451.140 614.283 C 451.898 615.041, 453.139 615.454, 453.898 615.201 C 454.657 614.948, 455.035 615.136, 454.737 615.620 C 453.692 617.320, 471.192 617.251, 476.245 615.535 C 479.938 614.281, 481.461 614.176, 483.116 615.062 C 484.285 615.688, 485.018 615.817, 484.746 615.350 C 484.473 614.882, 484.612 613.600, 485.055 612.500 C 485.598 611.151, 485.897 610.988, 485.974 612 C 486.038 612.825, 487.186 619.575, 488.527 627 C 491.146 641.509, 491.018 636.105, 488.344 619.290 C 486.837 609.812, 486.585 609.152, 484.832 610.090 C 483.794 610.646, 483.189 611.497, 483.488 611.981 C 483.788 612.465, 483.506 613.187, 482.862 613.585 C 482.088 614.063, 481.960 613.873, 482.485 613.025 C 483.023 612.155, 482.831 611.924, 481.889 612.311 C 447.920 626.250, 418.523 591.392, 441.846 564.829 C 443.556 562.881, 444.710 561.043, 444.411 560.744 C 444.111 560.445, 444.459 560.245, 445.183 560.300 C 445.908 560.355, 449.089 559.151, 452.253 557.625 C 459.087 554.329, 468.681 553.697, 473.717 556.209 L 476.824 557.759 476.450 554.629 C 475.611 547.616, 472.675 532.092, 471.972 530.955 C 471.392 530.016, 470.123 530.111, 466.432 531.369 C 447.587 537.789, 428.340 525.382, 426.287 505.491 C 424.560 488.763, 441.054 470.724, 455.584 473.450 C 457.463 473.802, 459 473.699, 459 473.221 C 459 461.004, 455.205 449.591, 451.598 450.963 C 431.460 458.619, 411.496 432.773, 422.778 413.652 C 424 411.580, 425 409.731, 425 409.543 C 425 409.183, 431.953 402.097, 432.300 402.103 C 432.410 402.105, 434.185 401.403, 436.243 400.543 C 438.302 399.683, 441.082 398.888, 442.421 398.777 C 443.821 398.661, 444.579 398.134, 444.206 397.538 C 443.849 396.967, 443.470 395.934, 443.366 395.243 C 442.077 386.751, 437.501 371.977, 436.302 372.438 C 435.529 372.734, 435.146 372.572, 435.452 372.077 C 435.758 371.582, 434.217 370.875, 432.028 370.505 C 415.607 367.730, 411.385 336.854, 426.622 330.967 C 429.166 329.984, 426.551 315.183, 423.944 315.806 C 422.938 316.047, 422.920 315.802, 423.859 314.669 C 425.769 312.368, 420.879 293.309, 415.738 283.015 C 407.325 266.172, 381.611 245.102, 367.652 243.613 C 366.422 243.482, 364.893 243.052, 364.255 242.658 C 360.523 240.351, 334.530 239.563, 324.360 241.449 M 444 423.241 C 444 423.723, 443.597 423.869, 443.105 423.565 C 442.612 423.260, 441.937 423.721, 441.605 424.588 C 440.756 426.800, 440.672 426.690, 444.137 427.898 C 447.509 429.073, 451.460 426.363, 450.400 423.601 C 449.866 422.208, 444 421.878, 444 423.241 M 545.750 428.971 C 546.987 429.988, 548.004 431.198, 548.008 431.660 C 548.022 433.135, 563.265 449.613, 570 455.434 C 573.575 458.523, 577.400 461.885, 578.500 462.903 C 582.575 466.676, 600.793 480, 601.877 480 C 602.495 480, 603.002 480.337, 603.005 480.750 C 603.011 481.716, 615.321 490, 616.750 490 C 617.346 490, 617.983 490.376, 618.167 490.837 C 618.650 492.049, 640.177 505, 641.709 505 C 642.419 505, 643 505.373, 643 505.829 C 643 506.285, 645.362 507.743, 648.250 509.069 C 651.138 510.394, 653.725 511.770, 654 512.126 C 658.045 517.361, 713.188 537.382, 715.989 534.633 C 716.852 533.785, 717.062 533.878, 716.821 535 C 716.623 535.927, 717.264 536.524, 718.500 536.562 C 719.600 536.596, 721.249 536.967, 722.166 537.386 C 724.599 538.501, 729.273 537.721, 729.803 536.111 C 730.107 535.186, 729.831 534.987, 728.975 535.515 C 728.107 536.052, 727.936 535.912, 728.447 535.085 C 728.868 534.405, 728.511 533.115, 727.644 532.181 C 726.786 531.256, 724.413 528.559, 722.369 526.188 C 717.903 521.002, 700.636 506, 699.135 506 C 698.550 506, 697.589 505.100, 697 504 C 696.411 502.900, 695.270 502, 694.465 502 C 693.659 502, 693 501.622, 693 501.161 C 693 500.082, 676.818 488.418, 675.781 488.750 C 675.352 488.887, 675 488.582, 675 488.071 C 675 487.116, 660.347 477.593, 659.773 478.175 C 659.597 478.354, 658.383 477.503, 657.075 476.285 C 655.767 475.066, 654.315 474.305, 653.849 474.594 C 653.382 474.882, 653 474.641, 653 474.059 C 653 473.477, 652.325 473, 651.500 473 C 650.675 473, 650 472.652, 650 472.228 C 650 471.803, 646.063 469.440, 641.251 466.978 C 636.439 464.515, 632.269 462.193, 631.984 461.817 C 631.698 461.442, 628.098 459.541, 623.982 457.594 C 619.867 455.647, 615.178 453.167, 613.562 452.084 C 611.947 451, 610.259 450.340, 609.812 450.616 C 609.366 450.892, 609 450.641, 609 450.059 C 609 449.477, 608.138 449, 607.083 449 C 606.029 449, 605.017 448.642, 604.833 448.206 C 604.484 447.374, 583.125 437.498, 574.500 434.180 C 568.964 432.050, 553.718 428.333, 547.500 427.596 L 543.500 427.122 545.750 428.971 M 451.250 497.603 C 448.264 501.010, 448.346 505.437, 451.455 508.545 C 455.393 512.484, 460.140 511.275, 462.467 505.741 C 465.843 497.711, 456.865 491.197, 451.250 497.603 M 464.538 533.938 C 463.537 535.558, 464.310 541.413, 465.800 543.500 C 467.192 545.449, 467.215 545.442, 466.696 543.206 C 466.047 540.408, 468.204 535.890, 469.737 536.837 C 471.909 538.180, 472.467 543.111, 470.361 542.352 C 469.338 541.983, 468.822 542.037, 469.215 542.472 C 469.608 542.907, 469.485 544.094, 468.942 545.109 C 468.154 546.581, 468.263 546.836, 469.477 546.371 C 470.315 546.049, 471 545.384, 471 544.893 C 471 544.402, 471.450 544, 472 544 C 472.550 544, 473 544.975, 473 546.167 C 473 547.358, 473.264 548.069, 473.587 547.746 C 474.747 546.586, 471.901 536, 470.429 536 C 469.643 536, 468.993 535.438, 468.985 534.750 C 468.974 533.917, 468.646 534, 468 535 C 467.172 536.282, 467.028 536.246, 467.015 534.750 C 466.999 532.880, 465.497 532.387, 464.538 533.938 M 663 546.500 C 666.575 548.372, 669.950 549.903, 670.500 549.903 C 671.050 549.903, 668.575 548.372, 665 546.500 C 661.425 544.628, 658.050 543.097, 657.500 543.097 C 656.950 543.097, 659.425 544.628, 663 546.500 M 441.722 547.011 C 440.775 548.118, 440 549.719, 440 550.570 C 440 551.486, 439.528 551.826, 438.845 551.405 C 438.108 550.949, 437.963 551.132, 438.445 551.911 C 439.015 552.833, 439.636 552.734, 440.996 551.504 C 442.404 550.229, 442.901 550.161, 443.294 551.189 C 443.570 551.910, 443.729 550.813, 443.648 548.750 C 443.566 546.688, 443.488 545.001, 443.472 545 C 443.457 545, 442.669 545.905, 441.722 547.011 M 673.627 551.165 C 675.620 552.131, 675.215 552.725, 667.199 560.598 C 662.493 565.219, 658.943 569, 659.309 569 C 659.676 569, 658.488 571.362, 656.670 574.250 C 651.185 582.960, 645.864 596.358, 646.071 600.932 C 646.110 601.794, 646.917 599.797, 647.864 596.492 C 651.966 582.174, 660.275 568.650, 671.315 558.322 C 677.791 552.264, 677.808 552.234, 675.362 551.119 C 672.291 549.720, 670.729 549.762, 673.627 551.165 M 462.524 578.060 C 456.303 579.916, 454.198 586.289, 458.414 590.505 C 466.267 598.358, 479.218 591.971, 474.691 582.477 C 472.358 577.586, 468.638 576.235, 462.524 578.060 M 464.500 578.725 C 462.056 579.298, 460.063 581, 461.835 581 C 462.760 581, 462.802 581.502, 462 583 C 461.011 584.849, 461.347 585.419, 463.250 585.118 C 463.663 585.053, 464 585.450, 464 586 C 464 586.550, 463.592 587, 463.094 587 C 461.205 587, 463.303 590.902, 465.352 591.201 C 469.755 591.845, 473.151 590.886, 471.883 589.359 C 471.240 588.585, 471.004 587.663, 471.357 587.309 C 471.711 586.956, 472 587.192, 472 587.833 C 472 590.514, 473.703 588.744, 473.781 585.982 C 473.829 584.322, 473.452 583.220, 472.945 583.534 C 472.438 583.847, 472.263 583.478, 472.557 582.712 C 473.511 580.227, 468.553 577.773, 464.500 578.725 M 575.317 600.856 C 570.097 602.660, 562.242 608.491, 562.085 610.679 C 562.038 611.327, 561.438 612.462, 560.750 613.202 C 557.915 616.253, 557.357 630.598, 559.888 635.337 C 562.853 640.887, 574.050 650.210, 576.658 649.299 C 577.295 649.076, 578.072 649.307, 578.384 649.812 C 578.936 650.706, 583.177 650.575, 589.742 649.462 C 591.525 649.160, 593.118 649.045, 593.282 649.206 C 594.009 649.921, 607.791 638.052, 607.173 637.245 C 607.065 637.105, 607.657 635.363, 608.489 633.373 C 616.571 614.030, 595.882 593.750, 575.317 600.856 M 643.320 623 C 643.320 626.575, 643.502 628.038, 643.723 626.250 C 643.945 624.462, 643.945 621.538, 643.723 619.750 C 643.502 617.962, 643.320 619.425, 643.320 623 M 644.349 639 C 644.349 643.675, 644.522 645.587, 644.732 643.250 C 644.943 640.913, 644.943 637.087, 644.732 634.750 C 644.522 632.413, 644.349 634.325, 644.349 639 M 466.923 663.923 C 460.110 670.736, 465.334 681, 475.615 681 C 481.143 681, 486 676.278, 486 670.903 C 486 662.162, 473.323 657.523, 466.923 663.923 M 471.803 664.886 C 471.458 667.240, 471.731 668.008, 472.923 668.032 C 474.201 668.058, 474.132 668.342, 472.559 669.532 C 471.491 670.339, 471.154 671, 471.809 671 C 473.376 671, 473.338 674.236, 471.750 675.947 C 470.745 677.030, 470.758 677.147, 471.817 676.546 C 472.733 676.026, 473.037 676.362, 472.817 677.650 C 472.299 680.676, 478.094 680.684, 481.608 677.661 C 487.652 672.462, 484.509 663.414, 476.277 662.310 C 472.402 661.791, 472.244 661.881, 471.803 664.886 M 645.419 691 C 645.419 701.725, 645.566 706.112, 645.746 700.750 C 645.925 695.388, 645.925 686.612, 645.746 681.250 C 645.566 675.888, 645.419 680.275, 645.419 691 M 583.824 686.394 C 578.708 687.772, 570.397 693.474, 569.457 696.250 C 569.132 697.212, 568.446 698, 567.933 698 C 567.420 698, 567.092 698.337, 567.204 698.750 C 567.316 699.163, 566.853 701.750, 566.175 704.500 C 561.406 723.840, 582.641 741.648, 599.750 732.657 C 601.538 731.717, 603 731.217, 603 731.546 C 603 731.874, 603.659 731.548, 604.465 730.821 C 605.271 730.095, 606.509 729.002, 607.215 728.393 C 609.909 726.073, 612.814 722.147, 612.252 721.586 C 611.930 721.264, 612.267 721, 613 721 C 613.733 721, 614.062 720.729, 613.731 720.397 C 613.399 720.066, 613.602 718.603, 614.183 717.147 C 621.015 700, 602.595 681.340, 583.824 686.394 M 495.996 697.505 C 495.252 698.402, 493.036 699.985, 491.071 701.024 C 489.107 702.062, 488 702.931, 488.610 702.956 C 489.221 702.980, 491.379 701.875, 493.405 700.500 C 497.788 697.526, 497.977 697.495, 498.079 699.750 C 498.123 700.731, 498.374 700.967, 498.650 700.288 C 499.638 697.853, 497.536 695.649, 495.996 697.505 M 499.074 703 C 498.989 707.230, 505.957 717.843, 510.358 720.185 C 511.536 720.813, 510.422 719.302, 507.881 716.828 C 504.990 714.012, 502.485 710.305, 501.184 706.915 C 500.040 703.937, 499.091 702.175, 499.074 703 M 519.500 724.440 C 521.150 725.248, 524.750 725.869, 527.500 725.818 L 532.500 725.726 526.500 724.987 C 523.200 724.580, 519.600 723.959, 518.500 723.608 C 517.400 723.257, 517.850 723.631, 519.500 724.440 M 634.745 752.195 C 632.732 757.211, 631.487 760.907, 631.979 760.408 C 633.129 759.242, 639.262 743.929, 638.775 743.441 C 638.572 743.239, 636.759 747.178, 634.745 752.195 M 623.245 773.750 C 617.087 782.885, 612.033 788.402, 602.493 796.399 C 593.350 804.065, 592.446 805.055, 598.377 800.909 C 608.240 794.014, 622.895 777.902, 627.629 768.750 C 630.001 764.163, 628.730 765.614, 623.245 773.750 M 583.500 809.072 C 573.206 814.659, 572.707 815.699, 582.775 810.582 C 588.680 807.580, 594.430 803.949, 593 804.125 C 592.725 804.159, 588.450 806.385, 583.500 809.072 M 468 807.649 C 468 808.316, 485.075 816.259, 485.530 815.804 C 485.732 815.601, 481.871 813.575, 476.949 811.301 C 472.027 809.028, 468 807.384, 468 807.649 M 569 815.614 C 567.075 816.459, 561.675 818.209, 557 819.502 C 552.325 820.795, 549.184 821.886, 550.020 821.927 C 552.327 822.038, 564.919 818.389, 570 816.136 C 572.475 815.039, 574.050 814.127, 573.500 814.110 C 572.950 814.092, 570.925 814.770, 569 815.614 M 522.750 823.740 C 526.188 823.936, 531.813 823.936, 535.250 823.740 C 538.688 823.545, 535.875 823.385, 529 823.385 C 522.125 823.385, 519.313 823.545, 522.750 823.740"
     stroke="none"
     fill="#e7b850"
     fill-rule="evenodd"
     data-index="0"
     id="path2"
     style="fill:none" />
  <path
     d="M 610.469 219.500 C 610.469 251.950, 610.595 265.080, 610.750 248.678 C 610.904 232.277, 610.904 205.727, 610.749 189.678 C 610.595 173.630, 610.469 187.050, 610.469 219.500 M 732.402 247 C 732.402 255.525, 732.556 259.012, 732.743 254.750 C 732.931 250.488, 732.931 243.512, 732.743 239.250 C 732.556 234.988, 732.402 238.475, 732.402 247 M 732.320 272 C 732.320 275.575, 732.502 277.038, 732.723 275.250 C 732.945 273.462, 732.945 270.538, 732.723 268.750 C 732.502 266.962, 732.320 268.425, 732.320 272 M 732.336 287 C 732.336 291.125, 732.513 292.813, 732.728 290.750 C 732.944 288.688, 732.944 285.313, 732.728 283.250 C 732.513 281.188, 732.336 282.875, 732.336 287 M 732.429 320.500 C 732.429 333.150, 732.573 338.187, 732.747 331.694 C 732.922 325.200, 732.921 314.850, 732.746 308.694 C 732.571 302.537, 732.428 307.850, 732.429 320.500 M 859.328 373.500 C 859.333 377.350, 859.513 378.802, 859.730 376.728 C 859.946 374.653, 859.943 371.503, 859.722 369.728 C 859.501 367.952, 859.324 369.650, 859.328 373.500 M 177.374 384.500 C 177.376 390.550, 177.541 392.896, 177.740 389.713 C 177.939 386.531, 177.937 381.581, 177.736 378.713 C 177.535 375.846, 177.372 378.450, 177.374 384.500 M 221.445 444 C 221.445 461.325, 221.582 468.413, 221.748 459.750 C 221.915 451.087, 221.915 436.913, 221.748 428.250 C 221.582 419.587, 221.445 426.675, 221.445 444 M 177.320 462 C 177.320 465.575, 177.502 467.038, 177.723 465.250 C 177.945 463.462, 177.945 460.538, 177.723 458.750 C 177.502 456.962, 177.320 458.425, 177.320 462 M 464.538 533.938 C 463.537 535.558, 464.310 541.413, 465.800 543.500 C 467.192 545.449, 467.215 545.442, 466.696 543.206 C 466.047 540.408, 468.204 535.890, 469.737 536.837 C 471.909 538.180, 472.467 543.111, 470.361 542.352 C 469.338 541.983, 468.822 542.037, 469.215 542.472 C 469.608 542.907, 469.485 544.094, 468.942 545.109 C 468.154 546.581, 468.263 546.836, 469.477 546.371 C 470.315 546.049, 471 545.384, 471 544.893 C 471 544.402, 471.450 544, 472 544 C 472.550 544, 473 544.975, 473 546.167 C 473 547.358, 473.264 548.069, 473.587 547.746 C 474.747 546.586, 471.901 536, 470.429 536 C 469.643 536, 468.993 535.438, 468.985 534.750 C 468.974 533.917, 468.646 534, 468 535 C 467.172 536.282, 467.028 536.246, 467.015 534.750 C 466.999 532.880, 465.497 532.387, 464.538 533.938 M 646.380 544.167 C 637.092 552.150, 633.700 555.759, 630.038 561.558 C 619.636 578.028, 618.819 584.412, 620.708 634.493 C 623.622 711.759, 621.497 731.453, 607.430 757.583 C 590.623 788.800, 553.339 809.590, 514.500 809.403 C 480.281 809.238, 447.648 793.126, 426.858 766.132 C 424.991 763.707, 424.044 763.120, 423.478 764.036 C 422.928 764.925, 423.090 765.062, 424.015 764.490 C 424.985 763.891, 425.164 764.132, 424.681 765.388 C 424.268 766.466, 424.415 766.862, 425.078 766.452 C 425.705 766.064, 426.005 766.551, 425.817 767.650 C 425.628 768.751, 426.025 769.392, 426.797 769.234 C 427.550 769.080, 427.970 769.710, 427.797 770.734 C 427.625 771.758, 428.045 772.388, 428.797 772.234 C 429.546 772.081, 429.969 772.706, 429.797 773.712 C 429.634 774.671, 430.079 775.465, 430.786 775.478 C 432.231 775.503, 434.096 778.036, 433.445 779.089 C 433.212 779.465, 433.805 780.387, 434.761 781.137 C 436.358 782.389, 436.386 782.337, 435.104 780.500 C 434.337 779.400, 435.305 780.300, 437.256 782.500 C 439.207 784.700, 440.553 786.907, 440.247 787.405 C 439.941 787.902, 440.157 788.021, 440.727 787.669 C 441.296 787.317, 443.278 788.365, 445.131 789.999 C 446.984 791.632, 448.093 792.975, 447.595 792.984 C 447.097 792.993, 447.495 793.889, 448.479 794.976 C 449.462 796.063, 450.591 796.753, 450.986 796.508 C 451.382 796.264, 452.559 796.758, 453.603 797.606 C 454.646 798.454, 454.825 798.818, 454 798.414 C 453.118 797.982, 452.843 798.055, 453.333 798.590 C 453.792 799.090, 454.579 799.556, 455.083 799.625 C 455.588 799.694, 456.477 799.806, 457.059 799.875 C 457.641 799.944, 457.833 800.461, 457.485 801.025 C 457.136 801.588, 457.222 801.985, 457.676 801.906 C 459.692 801.556, 461.067 802.082, 460.507 802.989 C 460.166 803.541, 460.537 803.731, 461.347 803.420 C 462.145 803.114, 463.138 803.414, 463.553 804.086 C 464.068 804.920, 463.892 805.051, 463 804.500 C 462.127 803.961, 461.932 804.081, 462.415 804.862 C 462.813 805.506, 463.619 805.736, 464.206 805.372 C 464.794 805.009, 466.152 805.790, 467.224 807.106 C 468.296 808.423, 468.881 808.934, 468.523 808.242 C 468.010 807.250, 468.406 807.228, 470.405 808.139 C 471.798 808.773, 472.703 809.671, 472.417 810.135 C 472.130 810.598, 472.668 810.681, 473.612 810.319 C 474.769 809.875, 475.095 810.038, 474.612 810.819 C 474.130 811.599, 474.456 811.762, 475.612 811.319 C 476.769 810.875, 477.095 811.038, 476.612 811.819 C 476.130 812.599, 476.456 812.762, 477.612 812.319 C 478.708 811.898, 479.088 812.049, 478.663 812.737 C 478.232 813.434, 478.759 813.614, 480.155 813.249 C 481.623 812.865, 482.086 813.051, 481.604 813.831 C 481.131 814.598, 481.464 814.759, 482.612 814.319 C 483.769 813.875, 484.095 814.038, 483.612 814.819 C 483.144 815.575, 483.434 815.771, 484.448 815.382 C 485.302 815.054, 486 815.270, 486 815.862 C 486 816.453, 486.675 816.678, 487.500 816.362 C 488.325 816.045, 489 816.270, 489 816.862 C 489 817.454, 489.748 817.650, 490.664 817.299 C 491.808 816.860, 492.094 817.038, 491.580 817.870 C 491.041 818.743, 491.512 818.910, 493.272 818.468 C 494.796 818.085, 496.263 818.406, 497.180 819.323 C 498.080 820.223, 499.779 820.607, 501.574 820.317 C 503.853 819.948, 504.169 820.081, 503 820.920 C 501.867 821.734, 502.333 821.837, 504.905 821.343 C 507.260 820.890, 508.102 821.026, 507.633 821.785 C 507.167 822.538, 508.136 822.718, 510.728 822.358 C 512.857 822.062, 513.996 822.197, 513.344 822.667 C 512.708 823.125, 519.301 823.500, 527.994 823.500 C 536.688 823.500, 543.283 823.126, 542.650 822.669 C 542.017 822.212, 543.442 822.110, 545.824 822.443 C 548.987 822.885, 549.953 822.734, 549.425 821.879 C 548.920 821.061, 549.489 820.860, 551.321 821.211 C 552.923 821.517, 553.699 821.323, 553.321 820.711 C 552.943 820.098, 553.719 819.904, 555.321 820.211 C 556.923 820.517, 557.699 820.323, 557.321 819.711 C 556.943 819.098, 557.719 818.904, 559.321 819.211 C 560.943 819.521, 561.701 819.326, 561.313 818.698 C 560.930 818.077, 561.523 817.903, 562.845 818.249 C 564.228 818.611, 564.766 818.431, 564.345 817.749 C 563.924 817.067, 564.462 816.888, 565.845 817.249 C 567.241 817.614, 567.768 817.434, 567.337 816.737 C 566.912 816.049, 567.292 815.898, 568.388 816.319 C 569.536 816.759, 569.869 816.598, 569.396 815.831 C 568.914 815.051, 569.377 814.865, 570.845 815.249 C 572.241 815.614, 572.768 815.434, 572.337 814.737 C 571.916 814.056, 572.283 813.895, 573.336 814.299 C 574.252 814.650, 575 814.454, 575 813.862 C 575 813.270, 575.698 813.054, 576.552 813.382 C 577.566 813.771, 577.856 813.575, 577.388 812.819 C 576.905 812.038, 577.231 811.875, 578.388 812.319 C 579.544 812.762, 579.870 812.599, 579.388 811.819 C 578.905 811.038, 579.231 810.875, 580.388 811.319 C 581.544 811.762, 581.870 811.599, 581.388 810.819 C 580.905 810.038, 581.231 809.875, 582.388 810.319 C 583.544 810.762, 583.870 810.599, 583.388 809.819 C 582.905 809.038, 583.231 808.875, 584.388 809.319 C 585.334 809.682, 585.850 809.566, 585.537 809.061 C 584.976 808.153, 588.737 806.398, 590.324 806.827 C 590.778 806.949, 590.864 806.588, 590.515 806.025 C 589.961 805.128, 591.325 804.564, 592.387 805.250 C 592.600 805.388, 593.613 804.464, 594.639 803.198 C 595.664 801.932, 597.402 800.764, 598.501 800.603 C 599.601 800.441, 600.500 799.773, 600.500 799.118 C 600.500 797.767, 603.060 795.919, 604.069 796.542 C 604.434 796.768, 605.580 795.951, 606.616 794.726 L 608.500 792.500 606.250 794.405 C 601.848 798.132, 604.128 795.402, 610.763 789 C 614.468 785.425, 616.600 783.625, 615.500 785 L 613.500 787.500 615.726 785.616 C 616.951 784.580, 617.774 783.443, 617.555 783.088 C 617.336 782.734, 618.060 781.332, 619.165 779.972 C 620.270 778.612, 620.837 778.175, 620.426 779 C 619.994 779.868, 620.057 780.154, 620.577 779.679 C 621.071 779.228, 621.480 778.103, 621.487 777.179 C 621.494 776.256, 622.063 775.613, 622.750 775.750 C 623.438 775.888, 623.947 775.663, 623.882 775.250 C 623.564 773.239, 624.105 771.947, 625.025 772.515 C 625.588 772.864, 625.985 772.778, 625.906 772.324 C 625.556 770.308, 626.082 768.933, 626.989 769.493 C 627.554 769.843, 627.724 769.444, 627.385 768.560 C 627.036 767.652, 627.450 766.764, 628.391 766.404 C 629.269 766.066, 629.762 765.424, 629.485 764.976 C 629.208 764.528, 629.773 763.370, 630.741 762.402 C 631.708 761.434, 632.407 760.386, 632.294 760.071 C 631.815 758.746, 633.287 755.059, 634.095 755.559 C 634.580 755.859, 634.681 755.332, 634.319 754.388 C 633.875 753.231, 634.038 752.905, 634.819 753.388 C 635.599 753.870, 635.762 753.544, 635.319 752.388 C 634.898 751.292, 635.049 750.912, 635.737 751.337 C 636.434 751.768, 636.614 751.241, 636.249 749.845 C 635.888 748.462, 636.067 747.924, 636.749 748.345 C 637.431 748.766, 637.611 748.228, 637.249 746.845 C 636.865 745.377, 637.051 744.914, 637.831 745.396 C 638.574 745.855, 638.768 745.558, 638.382 744.552 C 638.054 743.698, 638.242 743, 638.799 743 C 639.357 743, 639.559 742.030, 639.249 740.844 C 638.903 739.522, 639.077 738.930, 639.698 739.313 C 640.322 739.699, 640.544 738.895, 640.277 737.220 C 639.926 735.020, 640.061 734.787, 640.982 736 C 641.874 737.175, 641.977 736.768, 641.454 734.125 C 641.009 731.878, 641.136 730.966, 641.834 731.397 C 642.525 731.825, 642.704 730.763, 642.358 728.272 C 641.961 725.413, 642.095 724.863, 642.910 726 C 643.710 727.114, 643.838 726.214, 643.411 722.500 C 642.977 718.735, 643.106 717.870, 643.932 719 C 644.757 720.129, 644.864 719.412, 644.362 716.097 C 643.977 713.554, 644.077 711.927, 644.598 712.245 C 645.127 712.568, 645.556 697.840, 645.635 676.648 C 645.709 656.767, 645.436 642.075, 645.028 644 C 644.621 645.925, 644.335 638.886, 644.394 628.359 C 644.452 617.831, 644.864 609.731, 645.309 610.359 C 645.754 610.986, 645.840 609.475, 645.500 607 C 645.034 603.605, 645.151 602.868, 645.978 604 C 646.808 605.135, 646.910 604.553, 646.399 601.605 C 645.967 599.116, 646.082 597.933, 646.717 598.325 C 647.321 598.699, 647.515 597.913, 647.211 596.321 C 646.889 594.641, 647.087 593.936, 647.762 594.353 C 648.429 594.765, 648.607 594.213, 648.249 592.845 C 647.829 591.238, 648.020 590.894, 648.997 591.498 C 649.870 592.038, 650.068 591.919, 649.590 591.146 C 648.579 589.510, 649.916 585.830, 651.227 586.640 C 651.888 587.049, 652.019 586.840, 651.564 586.104 C 650.632 584.596, 653.780 577.746, 655.046 578.529 C 655.568 578.851, 655.687 578.349, 655.319 577.388 C 654.904 576.308, 655.052 575.914, 655.717 576.325 C 656.318 576.697, 656.715 576.228, 656.637 575.239 C 656.562 574.283, 657.010 573.595, 657.632 573.711 C 658.255 573.827, 658.705 573.152, 658.632 572.211 C 658.552 571.176, 659.092 570.627, 660 570.821 C 661.141 571.066, 661.223 570.861, 660.342 569.963 C 658.989 568.586, 671.398 554.800, 673.592 555.242 C 674.294 555.384, 674.786 555.232, 674.684 554.904 C 674.583 554.576, 675.126 553.553, 675.891 552.631 C 677.118 551.153, 677.069 551.036, 675.477 551.647 C 674.243 552.121, 673.898 551.973, 674.388 551.181 C 674.856 550.425, 674.566 550.229, 673.552 550.618 C 672.696 550.947, 672 550.691, 672 550.048 C 672 549.407, 671.591 549.135, 671.090 549.444 C 669.806 550.238, 666.899 548.973, 667.558 547.907 C 667.858 547.421, 667.332 547.319, 666.388 547.681 C 665.231 548.125, 664.905 547.962, 665.388 547.181 C 665.870 546.401, 665.544 546.238, 664.388 546.681 C 663.231 547.125, 662.905 546.962, 663.388 546.181 C 663.870 545.401, 663.544 545.238, 662.388 545.681 C 661.231 546.125, 660.905 545.962, 661.388 545.181 C 661.870 544.401, 661.544 544.238, 660.388 544.681 C 659.231 545.125, 658.905 544.962, 659.388 544.181 C 659.856 543.425, 659.566 543.229, 658.552 543.618 C 657.698 543.946, 657 543.791, 657 543.274 C 657 542.756, 656.438 542.291, 655.750 542.239 C 655.063 542.187, 653.546 541.850, 652.379 541.490 C 650.828 541.010, 649.217 541.729, 646.380 544.167 M 441.722 547.011 C 440.775 548.118, 440 549.719, 440 550.570 C 440 551.486, 439.528 551.826, 438.845 551.405 C 438.108 550.949, 437.963 551.132, 438.445 551.911 C 439.015 552.833, 439.636 552.734, 440.996 551.504 C 442.404 550.229, 442.901 550.161, 443.294 551.189 C 443.570 551.910, 443.729 550.813, 443.648 548.750 C 443.566 546.688, 443.488 545.001, 443.472 545 C 443.457 545, 442.669 545.905, 441.722 547.011 M 221.462 623.500 C 221.463 649.900, 221.592 660.556, 221.749 647.181 C 221.907 633.805, 221.907 612.205, 221.749 599.181 C 221.591 586.156, 221.462 597.100, 221.462 623.500 M 464.500 578.725 C 462.056 579.298, 460.063 581, 461.835 581 C 462.760 581, 462.802 581.502, 462 583 C 461.011 584.849, 461.347 585.419, 463.250 585.118 C 463.663 585.053, 464 585.450, 464 586 C 464 586.550, 463.592 587, 463.094 587 C 461.205 587, 463.303 590.902, 465.352 591.201 C 469.755 591.845, 473.151 590.886, 471.883 589.359 C 471.240 588.585, 471.004 587.663, 471.357 587.309 C 471.711 586.956, 472 587.192, 472 587.833 C 472 590.514, 473.703 588.744, 473.781 585.982 C 473.829 584.322, 473.452 583.220, 472.945 583.534 C 472.438 583.847, 472.263 583.478, 472.557 582.712 C 473.511 580.227, 468.553 577.773, 464.500 578.725 M 545.310 584.500 C 545.315 587.800, 545.502 589.029, 545.725 587.232 C 545.947 585.435, 545.943 582.735, 545.715 581.232 C 545.486 579.729, 545.304 581.200, 545.310 584.500 M 484.999 612.500 C 484.869 613.600, 484.808 614.811, 484.862 615.191 C 484.916 615.571, 483.354 615.210, 481.389 614.389 C 479.425 613.569, 478.098 613.349, 478.439 613.902 C 479.506 615.628, 471.112 617.164, 462.465 616.825 C 457.918 616.646, 454.441 616.104, 454.738 615.620 C 455.035 615.136, 454.657 614.948, 453.898 615.201 C 453.139 615.454, 451.898 615.041, 451.140 614.283 C 450.382 613.525, 449.491 613.176, 449.160 613.507 C 448.829 613.838, 449.220 614.527, 450.029 615.039 C 451.149 615.747, 450.855 615.973, 448.798 615.985 C 446.431 615.998, 446.140 616.342, 446.456 618.750 C 447.152 624.044, 449.293 631.513, 450.541 633 C 451.234 633.825, 452.496 636.183, 453.345 638.240 C 454.527 641.103, 455.292 641.825, 456.609 641.320 C 457.868 640.837, 458.109 641.014, 457.510 641.985 C 456.961 642.872, 457.077 643.070, 457.862 642.585 C 458.506 642.187, 458.794 641.475, 458.502 641.003 C 457.793 639.856, 461.669 638.677, 463.146 639.590 C 463.919 640.068, 464.038 639.870, 463.498 638.997 C 462.894 638.020, 463.238 637.829, 464.845 638.249 C 466.191 638.601, 466.763 638.425, 466.365 637.781 C 465.956 637.119, 467.006 636.899, 469.293 637.166 C 471.255 637.395, 472.622 637.197, 472.331 636.727 C 471.856 635.958, 475.478 636.287, 481.791 637.587 C 483.051 637.846, 483.815 638.490, 483.489 639.018 C 483.159 639.552, 483.584 639.713, 484.448 639.382 C 485.302 639.054, 486 639.270, 486 639.862 C 486 640.454, 486.748 640.650, 487.664 640.299 C 488.611 639.935, 489.074 640.072, 488.737 640.616 C 488.413 641.141, 489.014 641.571, 490.073 641.571 C 491.350 641.571, 491.995 640.884, 491.985 639.536 C 491.972 637.822, 491.801 637.737, 490.902 639 C 490.111 640.112, 489.969 639.206, 490.354 635.500 C 490.695 632.220, 490.576 631.188, 490.007 632.500 C 489.257 634.232, 489.126 634.098, 489.033 631.500 C 488.875 627.103, 485.275 610.151, 484.999 612.500 M 643.320 623 C 643.320 626.575, 643.502 628.038, 643.723 626.250 C 643.945 624.462, 643.945 621.538, 643.723 619.750 C 643.502 617.962, 643.320 619.425, 643.320 623 M 406.310 628.500 C 406.315 631.800, 406.502 633.029, 406.725 631.232 C 406.947 629.435, 406.943 626.735, 406.715 625.232 C 406.486 623.729, 406.304 625.200, 406.310 628.500 M 381.320 657 C 381.320 660.575, 381.502 662.038, 381.723 660.250 C 381.945 658.462, 381.945 655.538, 381.723 653.750 C 381.502 651.962, 381.320 653.425, 381.320 657 M 407.320 665 C 407.320 668.575, 407.502 670.038, 407.723 668.250 C 407.945 666.462, 407.945 663.538, 407.723 661.750 C 407.502 659.962, 407.320 661.425, 407.320 665 M 475.355 661.716 C 471.818 662.160, 469.583 667.964, 472.923 668.032 C 474.201 668.058, 474.132 668.342, 472.559 669.532 C 471.491 670.339, 471.154 671, 471.809 671 C 473.376 671, 473.338 674.236, 471.750 675.947 C 470.745 677.030, 470.758 677.147, 471.817 676.546 C 472.729 676.029, 473.036 676.356, 472.817 677.611 C 472.572 679.008, 473.347 679.565, 476.207 680.047 C 478.585 680.447, 479.692 680.311, 479.293 679.666 C 478.918 679.059, 479.353 678.921, 480.388 679.319 C 481.332 679.681, 481.860 679.583, 481.563 679.102 C 480.997 678.187, 483.370 675.704, 484.107 676.440 C 484.339 676.673, 484.529 674.225, 484.529 671 C 484.529 667.775, 484.339 665.327, 484.107 665.560 C 483.411 666.256, 480.981 663.839, 481.512 662.980 C 481.782 662.544, 481.032 662.440, 479.845 662.751 C 478.366 663.137, 477.912 662.951, 478.403 662.158 C 478.796 661.521, 478.979 661.072, 478.809 661.160 C 478.639 661.248, 477.085 661.498, 475.355 661.716 M 408.328 695.500 C 408.333 699.350, 408.513 700.802, 408.730 698.728 C 408.946 696.653, 408.943 693.503, 408.722 691.728 C 408.501 689.952, 408.324 691.650, 408.328 695.500 M 497.815 697.054 C 497.622 697.634, 496.697 698.221, 495.761 698.359 C 494.824 698.496, 493.707 698.994, 493.279 699.465 C 492.851 699.935, 493.063 699.997, 493.750 699.601 C 494.438 699.206, 495 699.122, 495 699.415 C 495 700.636, 488.992 702.934, 487.399 702.323 C 486.303 701.902, 485.913 702.049, 486.330 702.725 C 487.242 704.201, 484.693 705, 479.070 705 L 474.303 705 475.201 710.728 C 479.310 736.929, 511.243 757.341, 529.798 745.627 C 532.087 744.182, 534.335 743, 534.793 743 C 538.004 743, 545.002 731.160, 545.759 724.446 C 546.335 719.338, 545.420 718.891, 541.032 722.135 C 539.383 723.353, 537.447 724.002, 536.520 723.646 C 535.487 723.250, 535.142 723.421, 535.573 724.118 C 536.041 724.876, 535.208 725.008, 532.875 724.546 C 530.381 724.053, 529.892 724.152, 531 724.924 C 532.139 725.718, 531.392 725.973, 527.899 725.985 C 522.799 726.002, 517 724.330, 517 722.843 C 517 722.315, 516.550 722.160, 516 722.500 C 515.450 722.840, 515 722.566, 515 721.892 C 515 721.218, 514.707 720.960, 514.349 721.318 C 513.991 721.676, 513.057 721.188, 512.275 720.234 C 511.492 719.281, 511.164 719.107, 511.547 719.850 C 512.756 722.199, 508.509 719.394, 505.572 715.903 C 501.932 711.578, 499.746 707.105, 500.416 705.358 C 500.770 704.437, 500.558 704.155, 499.843 704.597 C 499.046 705.089, 498.913 704.484, 499.394 702.565 C 499.891 700.585, 499.754 700.034, 498.894 700.565 C 498.039 701.094, 497.894 700.560, 498.373 698.649 C 499.006 696.127, 498.555 694.836, 497.815 697.054 M 778.250 707.728 C 780.313 707.944, 783.688 707.944, 785.750 707.728 C 787.813 707.513, 786.125 707.336, 782 707.336 C 777.875 707.336, 776.188 707.513, 778.250 707.728 M 525.728 824.722 C 527.503 824.943, 530.653 824.946, 532.728 824.730 C 534.802 824.513, 533.350 824.333, 529.500 824.328 C 525.650 824.324, 523.952 824.501, 525.728 824.722"
     stroke="none"
     fill="#d19c42"
     fill-rule="evenodd"
     data-index="1"
     id="path4"
     style="fill:none" />
  <path
     d="M 616.110 151.326 C 610.987 154.315, 611.073 153.171, 611.035 218.357 C 611.002 275.900, 610.905 279.177, 609.250 278.536 C 581.006 267.587, 551.796 284.273, 551.575 311.483 C 551.192 358.858, 621.992 360.040, 634.547 312.869 C 635.695 308.557, 635.979 297.602, 635.988 257.231 L 636 206.962 638.750 207.609 C 642.504 208.491, 688.537 221.553, 698.750 224.633 L 707 227.121 707 269.963 L 707 312.804 702.250 311.320 C 671.506 301.716, 642.255 329.553, 652.978 358.210 C 664.570 389.195, 714.353 389.087, 728.896 358.046 L 731.494 352.500 732.246 274 C 733.244 169.895, 735.066 180.121, 714.500 174.428 C 707.350 172.448, 685.750 166.345, 666.500 160.865 C 630.119 150.509, 620.601 148.707, 616.110 151.326 M 318.936 215.973 C 302.600 219.021, 242.629 235.703, 238.662 238.302 C 231.297 243.128, 231.597 255.669, 239.171 259.590 C 241.002 260.538, 255.945 265.507, 272.377 270.632 C 304.652 280.699, 307.969 281.253, 325.500 279.499 C 355.706 276.477, 368.077 293.719, 369.987 341.500 C 370.558 355.800, 371.699 379.875, 372.522 395 C 376.226 463.071, 380.281 582.629, 381.536 660.747 C 383.223 765.705, 402.688 806.389, 465.074 835.348 C 572.917 885.406, 672.348 812.340, 671.033 684 C 670.283 610.820, 670.292 610.458, 673.295 601.422 C 681.215 577.581, 700.052 563.243, 724.135 562.723 C 789.495 561.313, 754.773 501.333, 656 445.024 C 565.793 393.598, 519.500 387.825, 519.500 428 L 519.500 437.500 526.912 452.148 L 534.324 466.797 534.219 476.148 C 534.112 485.720, 533.752 487.636, 527.654 511.050 C 517.704 549.251, 518.812 654.981, 529.576 694.570 C 530.170 696.753, 527.783 699.602, 526.187 698.615 C 524.901 697.821, 523.391 689.371, 520.447 666.500 C 514.806 622.680, 512.497 607.886, 505.541 571 C 503.104 558.075, 499.913 540.750, 498.450 532.500 C 496.988 524.250, 494.075 510.750, 491.977 502.500 C 487.336 484.248, 484.780 471.502, 481.550 450.500 C 478.009 427.482, 474.679 411.660, 469.657 394 C 467.232 385.475, 464.316 374.225, 463.177 369 C 462.038 363.775, 459.677 352.993, 457.931 345.041 C 455.711 334.929, 455.101 330.466, 455.900 330.200 C 464.260 327.413, 473.116 317.851, 473.785 310.889 C 474.746 300.881, 468.204 298.309, 456 303.896 C 449.527 306.859, 449.756 307.100, 446.640 294.066 C 433.475 239.003, 377.840 204.982, 318.936 215.973 M 334.500 239.952 C 302.962 242.990, 296.678 250.826, 323.979 253.072 C 353.592 255.509, 371.456 264.713, 383.881 283.936 C 393.278 298.477, 393.895 303.027, 397.521 384.500 C 401.502 473.965, 402.405 498.975, 405.985 619 C 409.172 725.846, 409.392 729.054, 414.574 744.500 C 447.073 841.361, 585.190 852.509, 631.384 762 C 644.641 736.024, 645.493 730.061, 645.529 663 C 645.559 605.807, 645.797 602.081, 650.199 590.095 C 654.740 577.729, 665.432 562.580, 674.511 555.648 L 678.795 552.376 667.148 547.068 C 632.539 531.297, 594.686 508.790, 568.356 488.329 C 558.736 480.852, 559 480.919, 559 485.979 C 559 488.167, 557.139 497.055, 554.865 505.729 C 545.376 541.918, 544.213 554.380, 545.926 601.500 C 547.166 635.619, 548.482 651.261, 552.091 674.778 C 555.758 698.673, 554.164 708.679, 545.335 717.201 C 530.073 731.931, 504.749 723.112, 499.884 701.372 C 499.223 698.417, 498.558 696, 498.407 696 C 498.256 696, 495.965 697.333, 493.316 698.962 C 479.871 707.230, 460.693 704.069, 449.298 691.708 C 426.437 666.906, 456.589 626.164, 486.754 641.097 C 493.032 644.205, 492.788 645.577, 489.596 625.183 C 486.781 607.190, 487.429 608.342, 481.870 611.449 C 461.432 622.872, 436.348 609.959, 434.261 586.941 C 432.444 566.900, 455.660 548.982, 473.686 556.513 C 478.266 558.427, 478.134 559.700, 475.010 543.742 C 471.893 527.817, 472.176 528.341, 467.888 530.558 C 459.483 534.904, 446.378 533.123, 437.632 526.446 C 416.820 510.554, 427.692 474.053, 453.250 474.010 C 459.992 473.998, 459.770 474.731, 457.500 460 C 456.695 454.775, 456.028 450.207, 456.018 449.848 C 456.008 449.489, 453.903 449.827, 451.341 450.598 C 435.929 455.236, 419.590 442.943, 419.737 426.820 C 419.856 413.803, 432 399, 442.559 399 C 444.714 399, 444.706 398.920, 441.113 384.750 L 437.500 370.500 432.112 369.842 C 415.615 367.829, 411.659 347.515, 425.035 333.500 L 428.853 329.500 424.944 312 C 413.765 261.952, 380.577 235.514, 334.500 239.952 M 775 303.279 C 760.838 310.355, 767.539 337.896, 783.701 339.039 C 795.516 339.875, 799.565 341.447, 805.418 347.469 C 814.604 356.921, 814.394 355.298, 814.996 421.500 C 815.519 479.137, 815.537 479.536, 817.828 485.236 C 822.679 497.305, 831.485 507.588, 846.261 518.437 L 852.803 523.241 845.029 529.099 C 817.324 549.975, 815 557.199, 815 622.436 C 815 699.525, 811.599 707.936, 780.405 707.988 C 770.056 708.005, 769.671 708.614, 769.576 725.105 L 769.500 738.167 772.463 740.719 C 784.488 751.075, 829.228 736.494, 844.572 717.219 C 858.797 699.349, 859.305 696.439, 859.714 630.500 C 860 584.255, 860.304 574.627, 861.624 570.013 C 865.965 554.837, 876.538 546.011, 893.216 543.641 C 904.469 542.041, 905.058 541.147, 905.191 525.451 C 905.348 506.969, 904.531 505.746, 891.246 504.579 C 875.681 503.212, 862.967 489.852, 860.035 471.783 C 859.437 468.099, 859.006 443.779, 858.993 413 C 858.959 334.789, 849.962 316.008, 807.500 305.520 C 793.624 302.093, 779.344 301.108, 775 303.279 M 229.432 305.443 C 203.790 312.073, 185.987 329.090, 179.935 352.756 C 178.142 359.763, 177.999 364.225, 177.983 413.410 C 177.961 478.892, 177.459 482.291, 166.008 494.398 C 159.733 501.033, 153.127 504.058, 143.103 504.888 C 124.853 506.399, 125.085 541.159, 143.363 543.851 C 159.369 546.208, 169.776 554.651, 175.638 570.033 C 177.163 574.035, 177.348 580.275, 177.420 630 C 177.517 697.282, 178.337 701.581, 194.522 719.692 C 210.510 737.581, 252.458 750.252, 263.694 740.587 L 266.500 738.173 266.500 724.998 C 266.500 708.569, 266.084 708, 254.067 708 C 224.886 708, 221 697.623, 221 619.703 L 221 571.853 218.436 564.214 C 213.930 550.790, 204.365 538.931, 188.845 527.524 L 183.436 523.549 191.468 517.614 C 219.930 496.583, 220.703 494.124, 221.523 422.070 C 222.377 347.036, 225.377 339.042, 252.694 339.010 C 265.420 338.995, 271.028 327.184, 266.629 309.658 C 264.763 302.225, 248.852 300.422, 229.432 305.443 M 443.042 422.765 C 439.881 425.325, 440.983 429, 444.912 429 C 448.578 429, 451.825 425.535, 450.356 423.191 C 448.846 420.782, 445.716 420.600, 443.042 422.765 M 548.243 432.666 C 581.548 475.948, 678.771 533.826, 724.750 537.742 C 733.067 538.450, 732.935 537.415, 723.389 527.140 C 687.094 488.072, 591.092 433.189, 549.104 427.503 L 543.708 426.772 548.243 432.666 M 453.838 495.217 C 450.544 496.320, 447.687 501.904, 448.586 505.485 C 449.948 510.914, 456.991 512.768, 460.810 508.702 C 466.960 502.156, 461.965 492.496, 453.838 495.217 M 461.357 577.992 C 458.441 579.168, 456 582.879, 456 586.134 C 456 593.038, 468.268 596.822, 473.545 591.545 C 480.675 584.416, 471.292 573.982, 461.357 577.992 M 572.429 602.381 C 560.568 607.904, 554.872 622.485, 560.079 634 C 571.258 658.727, 607.289 652.958, 609.729 626.051 C 611.419 607.417, 590.340 594.041, 572.429 602.381 M 466.614 663.857 C 458.945 671.926, 465.700 681.876, 478.327 681.111 C 484.865 680.715, 488.332 669.822, 483.651 664.380 C 479.863 659.977, 470.572 659.691, 466.614 663.857 M 586.045 686.092 C 557.281 691.731, 560.751 733.783, 590.014 734.198 C 612.892 734.523, 624.063 704.200, 605.910 691.050 C 602.346 688.468, 593.017 684.734, 591.068 685.110 C 590.756 685.170, 588.495 685.612, 586.045 686.092"
     stroke="none"
     fill="#0c2739"
     fill-rule="evenodd"
     data-index="2"
     style="opacity:1;fill:#008000"
     id="path6" />
</svg>
